# xmcd
#
# Track frame offsets: 
#        182
#        21020
#        32157
#        43830
#        56062
#        69035
#        84502
#        110280
#        122607
#        136287
#        147427
#        163760
#        171105
#        182560
#        196615
#        206660
#        224245
#        233365
#        251205
#        264175
#
# Disc length: 3753 seconds
#
# Revision: 0
# Processed by: cddbd v1.5.2PL0 Copyright (c) Steve Scherf et al.
# Submitted via: ExactAudioCopy v0.95a5
#
DISCID=1a0ea714
DTITLE=Various Artist - Tresors Gospel
DYEAR=2001
DGENRE=Gospel
TTITLE0=How I get over - Mahalia Jackson
TTITLE1=Motherless Child - The Golden Gate Quartet
TTITLE2=Climbing Up the Mountain - Alex Bradford and the Bradford Singer
TTITLE2=s
TTITLE3=Sometimes I feel like a motherless child - Jeanne Lee
TTITLE4=Tell me It's the Truth - Duke Ellington and Esther Marrow
TTITLE5=Count Your Blessings - The Original Gospel Harmonettes
TTITLE6=We Shall Overcome - Louis Armstrong
TTITLE7=I'll Trust His Words - The Highway QC's
TTITLE8=Father I Stretch My Hands To Thee - The Harmonizing Four
TTITLE9=I Can See Everybody's Mother - The Five Blind Boys of Alabama
TTITLE10=Stand By Me - The Staples Singers
TTITLE11=See How He Kept Me - The Argo Singers
TTITLE12=Where There's a Will - The Five Blind Boys of Alabama
TTITLE13=Seek, Seek - The Swan Silverstones
TTITLE14=Everytime I feel the Spirit - The Pilgrim Travellers
TTITLE15=Nothing but the Grace of God - The Sallie Martin Singers
TTITLE16=What about you - Madeline Bell and the Bradford Singers
TTITLE17=He Has a Way - The Greatest Harvest Choir
TTITLE18=I heard Zion Moan - The Golden Gate Quartet
TTITLE19=Come Sunday - Duke Ellington and Esther Marrow
EXTD=
EXTT0=
EXTT1=
EXTT2=
EXTT3=
EXTT4=
EXTT5=
EXTT6=
EXTT7=
EXTT8=
EXTT9=
EXTT10=
EXTT11=
EXTT12=
EXTT13=
EXTT14=
EXTT15=
EXTT16=
EXTT17=
EXTT18=
EXTT19=
PLAYORDER=
